# xmcd
#
# Track frame offsets:
#	150
#	12482
#	25237
#	33566
#	42869
#	53371
#	64100
#	74686
#	84214
#	98483
#	111240
#	124175
#	138197
#	151024
#	165452
#	177529
#	189369
#	202835
#	215363
#	225745
#
# Disc length: 3148 seconds
#
# Revision: 1
# Processed by: cddbd v1.5.2PL0 Copyright (c) Steve Scherf et al.
# Submitted via: audiograbber 1.83.01
#
DISCID=010c4a14
DTITLE=Johnny Cash - Heart of Cash
DYEAR=1968
DGENRE=Country
TTITLE0=I Walk The Line
TTITLE1=Lumberjack
TTITLE2=Five Feet High And Rising
TTITLE3=I Got Stripes
TTITLE4=Green, Green Grass of Home
TTITLE5=Why Do You Punish Me
TTITLE6=Frankie's Man, Johnny
TTITLE7=A Certain Kinda Hurtin'
TTITLE8=Mean As Hell
TTITLE9=Locomotive Man
TTITLE10=Folsom Prison Blues
TTITLE11=Don't Take Your Guns To Town
TTITLE12=The Matador
TTITLE13=Long Black Veil
TTITLE14=The Sons of Katie Elder
TTITLE15=The Ballad Of Boot Hill
TTITLE16=Happiness is You
TTITLE17=When I've Learned Enough to Die
TTITLE18=Girl In Saskatoon
TTITLE19=Ancient History
EXTD=
EXTT0=
EXTT1=
EXTT2=
EXTT3=
EXTT4=
EXTT5=
EXTT6=
EXTT7=
EXTT8=
EXTT9=
EXTT10=
EXTT11=
EXTT12=
EXTT13=
EXTT14=
EXTT15=
EXTT16=
EXTT17=
EXTT18=
EXTT19=
PLAYORDER=
